# xmcd CD database file
#
# Track frame offsets:
#	150
#	25341
#	68444
#	86781
#	114955
#	151428
#	182955
#	203362
#	233711
#
# Disc length: 3832 seconds
#
# Revision: 0
# Processed by: cddbd v1.4PL0 Copyright (c) Steve Scherf et al.
# Submitted via: CDex 1.50
#
DISCID=680ef609
DTITLE=Brother Jack McDuff - The Best Of THe Concord Years [CD 2)
DYEAR=2001
DGENRE=Blues
TTITLE0=Hot Barbecue
TTITLE1=J and G Blues
TTITLE2=Pump It Up
TTITLE3=From The Pulpit
TTITLE4=Yesterdays
TTITLE5=Down Home Blues
TTITLE6=The Playoff
TTITLE7=After Hours
TTITLE8=Rock Candy
EXTD=YEAR: 2001
EXTT0=
EXTT1=
EXTT2=
EXTT3=
EXTT4=
EXTT5=
EXTT6=
EXTT7=
EXTT8=
PLAYORDER=
